<?xml version="1.0" encoding="UTF-8" standalone="no"?>
<svg
   width="228"
   height="228"
   version="1.1"
   viewBox="0 0 60.325 60.325"
   id="svg1384"
   sodipodi:docname="support_icon.svg"
   inkscape:export-filename="/home/helaman/Desktop/support.png"
   inkscape:export-xdpi="6.7368422"
   inkscape:export-ydpi="6.7368422"
   inkscape:version="1.1.1 (1:1.1+202109281949+c3084ef5ed)"
   xmlns:inkscape="http://www.inkscape.org/namespaces/inkscape"
   xmlns:sodipodi="http://sodipodi.sourceforge.net/DTD/sodipodi-0.dtd"
   xmlns="http://www.w3.org/2000/svg"
   xmlns:svg="http://www.w3.org/2000/svg">
  <defs
     id="defs1388" />
  <sodipodi:namedview
     id="namedview1386"
     pagecolor="#ffffff"
     bordercolor="#666666"
     borderopacity="1.0"
     inkscape:pageshadow="2"
     inkscape:pageopacity="0.0"
     inkscape:pagecheckerboard="0"
     showgrid="false"
     inkscape:zoom="3.1535088"
     inkscape:cx="114"
     inkscape:cy="114"
     inkscape:window-width="1920"
     inkscape:window-height="1043"
     inkscape:window-x="0"
     inkscape:window-y="0"
     inkscape:window-maximized="1"
     inkscape:current-layer="svg1384" />
  <path
     d="m40.777 54.38c0 1.8962-1.6187 4.3473-3.6536 4.3473h-13.922c-2.0349 0-3.6536-2.4511-3.6536-4.3473v-13.597h-13.597c-1.8962 0-4.3473-1.6187-4.3473-3.6536v-13.922c0-2.0349 2.4511-3.6536 4.3473-3.6536h13.597v-13.597c0-1.8962 1.6187-4.3473 3.6536-4.3473h13.922c2.0349 0 3.6536 2.4511 3.6536 4.3473v13.597h13.597c1.8962 0 4.3473 1.6187 4.3473 3.6536v13.922c0 2.0349-2.4511 3.6536-4.3473 3.6536h-13.597z"
     id="path1382" />
</svg>
